<?xml version="1.0" encoding="UTF-8"?>
<svg width="14px" height="12px" viewBox="0 0 14 12" version="1.1" xmlns="http://www.w3.org/2000/svg" xmlns:xlink="http://www.w3.org/1999/xlink">
    <!-- Generator: Sketch 56.3 (81716) - https://sketch.com -->
    <title>heart</title>
    <desc>Created with Sketch.</desc>
    <defs>
        <path d="M7.19749427,2.26511703 C7.88057964,1.56180885 8.80723474,1.16666667 9.77349015,1.16666667 C10.7397456,1.16666667 11.6664007,1.56180885 12.349486,2.26511703 C13.0327061,2.96790374 13.4166667,3.9215448 13.4166667,4.9159394 C13.4166667,5.91033401 13.0327061,6.86397507 12.3493931,7.56685749 L7.39606421,12.6644367 C7.17724122,12.8896322 6.82245905,12.8896322 6.60363606,12.6644367 L1.65030721,7.56685748 C0.227675359,6.10279585 0.227675376,3.72908297 1.65030725,2.26502135 C3.07293912,0.800959736 5.37948111,0.800959719 6.80211301,2.26502132 L6.99985014,2.46851693 L7.19749427,2.26511703 Z M6.99985013,11.4411789 L10.9630137,7.36260051 L11.5570579,6.75125664 C12.0301852,6.26457948 12.296004,5.60436644 12.296004,4.9159394 C12.296004,4.22751237 12.0301852,3.56729933 11.5570579,3.08062217 C11.0839667,2.5935251 10.4424362,2.31996513 9.77349015,2.31996513 C9.1045441,2.31996513 8.46301364,2.5935251 7.9900154,3.08052648 L7.39606421,3.69177466 C7.17724122,3.9169702 6.82245905,3.9169702 6.60363606,3.69177466 L6.00968487,3.08052649 C5.02469896,2.06685595 3.42772129,2.06685596 2.4427354,3.08052651 C1.4577495,4.09419707 1.45774949,5.73768176 2.44273536,6.75135233 L6.99985013,11.4411789 Z" id="path-1"></path>
    </defs>
    <g id="Symbols" stroke="none" stroke-width="1" fill="none" fill-rule="evenodd">
        <g id="Elements-/-desktop-/-product-list-/-botes" transform="translate(-246.000000, -402.000000)">
            <g id="product-list-/-botes">
                <g id="icon-/-heart-/-line" transform="translate(246.000000, 401.000000)">
                    <mask id="mask-2" fill="white">
                        <use xlink:href="#path-1"></use>
                    </mask>
                    <use id="Shape" fill="#000000" fill-rule="nonzero" xlink:href="#path-1"></use>
                    <g id="COLOR-/-grey-navi" mask="url(#mask-2)" fill="#BEC6C4" fill-rule="evenodd">
                        <rect id="Rectangle" x="0" y="0" width="13.754386" height="13.754386"></rect>
                    </g>
                </g>
            </g>
        </g>
    </g>
</svg>