<?xml version="1.0" encoding="UTF-8"?>
<svg width="14px" height="14px" viewBox="0 0 14 14" version="1.1" xmlns="http://www.w3.org/2000/svg" xmlns:xlink="http://www.w3.org/1999/xlink">
    <!-- Generator: Sketch 56.3 (81716) - https://sketch.com -->
    <title>icon / rating</title>
    <desc>Created with Sketch.</desc>
    <g id="Symbols" stroke="none" stroke-width="1" fill="none" fill-rule="evenodd">
        <g id="Elements-/-desktop-/-product-list-/-botes" transform="translate(-10.000000, -401.000000)" fill="#FFCD00">
            <g id="product-list-/-botes">
                <g id="rating" transform="translate(10.000000, 400.000000)">
                    <g id="icon-/-rating" transform="translate(0.000000, 1.000000)">
                        <g id="Group-16">
                            <path d="M13.363822,5.11004381 C13.2653236,4.85272865 13.0418907,4.66395253 12.7718522,4.60990459 L9.14640447,3.8843698 L7.71749166,1.02687889 C7.58159119,0.755072598 7.30391568,0.583333333 7,0.583333333 C6.69608432,0.583333333 6.41840881,0.755072598 6.28250834,1.02687889 L4.85359553,3.8843698 L1.22814777,4.60990459 C0.958109273,4.66395253 0.734480622,4.85272865 0.636178024,5.11004381 C0.537875376,5.36735901 0.578410534,5.65718128 0.743684266,5.87768117 L2.93454034,8.79920715 L2.20314531,12.4580175 C2.14576949,12.7462731 2.2505342,13.0427535 2.47651276,13.2309421 C2.70229547,13.418935 3.01286912,13.4684789 3.2858449,13.3599914 L7,11.8748481 L10.7123927,13.3588164 C10.9855643,13.467304 11.296138,13.41776 11.5219207,13.2297672 C11.7477034,13.0415785 11.8526639,12.7450982 11.7952881,12.4568425 L11.0636973,8.79803222 L13.2563157,5.87768117 C13.4215895,5.65718128 13.4621246,5.36735901 13.363822,5.11004381 Z" id="Path" fill-rule="nonzero"></path>
                        </g>
                    </g>
                </g>
            </g>
        </g>
    </g>
</svg>